<svg id="Capa_1" data-name="Capa 1" xmlns="http://www.w3.org/2000/svg" viewBox="0 0 147 44"><defs><style>.cls-1{fill:#050800;}.cls-2{fill:#aba9a7;}.cls-3{fill:#fff;}</style></defs><g id="Desktop"><g id="Group-16"><path id="Path" class="cls-1" d="M140.87,43.18H5.69A5.35,5.35,0,0,1,.28,37.92V6.38A5.34,5.34,0,0,1,5.69,1.12H140.87a5.36,5.36,0,0,1,5.41,5.26V37.92A5.36,5.36,0,0,1,140.87,43.18Z"/><path id="Shape" class="cls-2" d="M141,1.31a4.56,4.56,0,0,1,4.56,4.55V38.38A4.56,4.56,0,0,1,141,42.93H5.23A4.56,4.56,0,0,1,.67,38.38V5.87A4.56,4.56,0,0,1,5.23,1.31Zm0-.87H5.23A5.45,5.45,0,0,0-.21,5.86V38.38A5.45,5.45,0,0,0,5.23,43.8H141a5.44,5.44,0,0,0,5.43-5.42V5.87A5.44,5.44,0,0,0,141,.44Z"/></g></g><g id="Group-13"><g id="_Group_" data-name=" Group "><g id="_Group_2" data-name=" Group 2"><g id="_Group_3" data-name=" Group 3"><path id="_Path_" data-name=" Path " class="cls-3" d="M30.64,21.53a6,6,0,0,1,2.89-5,6.22,6.22,0,0,0-4.89-2.62c-2.06-.21-4.06,1.22-5.11,1.22s-2.68-1.2-4.42-1.16a6.52,6.52,0,0,0-5.48,3.3c-2.38,4.06-.61,10,1.66,13.3,1.14,1.6,2.47,3.39,4.21,3.33s2.33-1.07,4.38-1.07,2.63,1.07,4.41,1,3-1.61,4.07-3.23a13.55,13.55,0,0,0,1.86-3.75,5.77,5.77,0,0,1-3.58-5.32Z"/><path id="_Path_2" data-name=" Path 2" class="cls-3" d="M27.29,11.73A5.84,5.84,0,0,0,28.66,7.5a6.11,6.11,0,0,0-3.93,2,5.59,5.59,0,0,0-1.41,4.07,5,5,0,0,0,4-1.85Z"/></g></g><g id="Group"><path id="Shape-2" data-name="Shape" class="cls-3" d="M52.14,29.81H46.33l-1.39,4.06H42.48l5.5-15h2.55l5.5,15h-2.5Zm-5.21-1.88h4.6l-2.26-6.6H49.2Z"/><path id="Shape-3" data-name="Shape" class="cls-3" d="M67.9,28.39c0,3.41-1.85,5.6-4.63,5.6a3.79,3.79,0,0,1-3.5-1.92h-.05V37.5H57.44V22.91h2.21v1.82h0a4,4,0,0,1,3.53-1.94C66,22.79,67.9,25,67.9,28.39Zm-2.34,0c0-2.22-1.17-3.68-2.94-3.68s-2.91,1.49-2.91,3.68,1.17,3.69,2.91,3.69S65.56,30.63,65.56,28.39Z"/><path id="Shape-4" data-name="Shape" class="cls-3" d="M80.11,28.39c0,3.41-1.84,5.6-4.63,5.6A3.78,3.78,0,0,1,72,32.07h0V37.5H69.66V22.91h2.2v1.82h0a4,4,0,0,1,3.53-1.94C78.26,22.79,80.11,25,80.11,28.39Zm-2.34,0c0-2.22-1.16-3.68-2.93-3.68s-2.91,1.49-2.91,3.68,1.17,3.69,2.91,3.69,2.93-1.45,2.93-3.69Z"/><path id="Path-2" data-name="Path" class="cls-3" d="M88.19,29.68c.17,1.49,1.63,2.47,3.64,2.47s3.3-1,3.3-2.32c0-1.17-.83-1.87-2.81-2.35l-2-.47c-2.8-.66-4.09-2-4.09-4.05,0-2.6,2.29-4.38,5.54-4.38s5.42,1.78,5.49,4.38H95c-.14-1.5-1.39-2.41-3.23-2.41s-3.09.92-3.09,2.25c0,1.07.8,1.69,2.77,2.17l1.67.41c3.13.73,4.43,2,4.43,4.17,0,2.81-2.27,4.57-5.88,4.57-3.38,0-5.66-1.72-5.8-4.44Z"/><path id="Path-3" data-name="Path" class="cls-3" d="M102.45,20.31v2.6h2.11v1.78h-2.11v6c0,.94.42,1.38,1.35,1.38a6.3,6.3,0,0,0,.75,0v1.77a6.71,6.71,0,0,1-1.26.11c-2.25,0-3.13-.84-3.13-3V24.69H98.55V22.91h1.61v-2.6Z"/><path id="Shape-5" data-name="Shape" class="cls-3" d="M105.79,28.39c0-3.45,2-5.62,5.26-5.62s5.26,2.17,5.26,5.62-2,5.62-5.26,5.62S105.79,31.85,105.79,28.39Zm8.2,0c0-2.37-1.09-3.76-2.94-3.76s-2.94,1.4-2.94,3.76,1.09,3.76,2.94,3.76S114,30.77,114,28.39Z"/><path id="Path-4" data-name="Path" class="cls-3" d="M118.19,22.91h2.18v1.86h0a2.65,2.65,0,0,1,2.67-2,3.46,3.46,0,0,1,.78.09V25a3.21,3.21,0,0,0-1-.13,2.3,2.3,0,0,0-1.78.72,2.25,2.25,0,0,0-.6,1.8v6.5h-2.28Z"/><path id="Shape-6" data-name="Shape" class="cls-3" d="M134.37,30.65c-.3,2-2.27,3.36-4.78,3.36-3.22,0-5.23-2.14-5.23-5.57s2-5.67,5.14-5.67,5,2.09,5,5.41V29h-7.84v.14a2.87,2.87,0,0,0,.78,2.22,3,3,0,0,0,2.21.88,2.5,2.5,0,0,0,2.56-1.54Zm-7.7-3.27h5.55a2.65,2.65,0,0,0-2.72-2.78,2.8,2.8,0,0,0-2.83,2.78Z"/></g></g><g id="Group-2" data-name="Group"><path id="Shape-7" data-name="Shape" class="cls-3" d="M44.5,14.4V7.09h3c1.38,0,2.22.69,2.22,1.82a1.6,1.6,0,0,1-1.3,1.57v.09A1.72,1.72,0,0,1,50,12.33c0,1.28-.94,2.07-2.51,2.07Zm1.14-4.22H47c1,0,1.54-.37,1.54-1.06S48,8.05,47.2,8.05H45.64Zm1.66,3.26c1,0,1.57-.42,1.57-1.19s-.56-1.17-1.64-1.17H45.64v2.36Z"/><path id="Shape-8" data-name="Shape" class="cls-3" d="M51.22,12.84c0-1,.74-1.57,2.07-1.65l1.5-.09v-.47c0-.58-.39-.91-1.14-.91s-1,.22-1.15.61H51.43c.12-.95,1-1.56,2.27-1.56s2.18.69,2.18,1.86V14.4H54.83v-.78h-.09a1.88,1.88,0,0,1-1.67.87,1.65,1.65,0,0,1-1.29-.42,1.62,1.62,0,0,1-.56-1.23Zm3.57-.47v-.46L53.43,12c-.76,0-1.11.31-1.11.8s.44.78,1,.78a1.28,1.28,0,0,0,1-.3,1.26,1.26,0,0,0,.46-.9Z"/><path id="Shape-9" data-name="Shape" class="cls-3" d="M57.46,7.25a.71.71,0,0,1,1.19-.56.71.71,0,0,1,.18.78.72.72,0,0,1-.66.44.65.65,0,0,1-.5-.18.68.68,0,0,1-.21-.48Zm.16,1.63h1.09V14.4H57.62Z"/><polygon id="Path-5" data-name="Path" class="cls-3" points="62.48 12.44 61.26 14.4 60.06 14.4 61.9 11.65 60.04 8.88 61.32 8.88 62.52 10.83 62.6 10.83 63.79 8.88 65.01 8.88 63.18 11.61 65.03 14.4 63.77 14.4 62.56 12.44 62.48 12.44"/><path id="Shape-10" data-name="Shape" class="cls-3" d="M66,12.84c0-1,.74-1.57,2.06-1.65l1.51-.09v-.47c0-.58-.39-.91-1.14-.91s-1,.22-1.16.61H66.21c.11-.95,1-1.56,2.27-1.56s2.18.69,2.18,1.86V14.4h-1v-.78h-.09a1.88,1.88,0,0,1-1.67.87,1.68,1.68,0,0,1-1.3-.42A1.64,1.64,0,0,1,66,12.84Zm3.57-.47v-.46L68.21,12c-.76,0-1.11.31-1.11.8s.43.78,1,.78a1.3,1.3,0,0,0,1-.3,1.26,1.26,0,0,0,.46-.9Z"/><path id="Path-6" data-name="Path" class="cls-3" d="M72.38,8.88h1.06v.85h.08A1.49,1.49,0,0,1,75,8.79a2.7,2.7,0,0,1,.49,0V9.91a3.17,3.17,0,0,0-.61-.07,1.31,1.31,0,0,0-1,.34,1.27,1.27,0,0,0-.42,1V14.4h-1.1Z"/><path id="Path-7" data-name="Path" class="cls-3" d="M79.73,8.88h1.06v.88h.08a1.68,1.68,0,0,1,1.66-1,1.81,1.81,0,0,1,1.93,2.06V14.4h-1.1V11.1c0-.89-.39-1.33-1.2-1.33a1.28,1.28,0,0,0-1,.4,1.27,1.27,0,0,0-.34,1V14.4h-1.1Z"/><path id="Shape-11" data-name="Shape" class="cls-3" d="M85.84,12.84c0-1,.74-1.57,2.06-1.65l1.51-.09v-.47c0-.58-.39-.91-1.14-.91s-1,.22-1.16.61H86.05c.11-.95,1-1.56,2.27-1.56s2.18.69,2.18,1.86V14.4H89.44v-.78h-.08a1.88,1.88,0,0,1-1.67.87,1.68,1.68,0,0,1-1.3-.42,1.64,1.64,0,0,1-.55-1.23Zm3.57-.47v-.46L88.05,12c-.76,0-1.11.31-1.11.8s.43.78,1,.78a1.3,1.3,0,0,0,1.44-1.2Z"/></g></g></svg>