<svg id="Capa_1" data-name="Capa 1" xmlns="http://www.w3.org/2000/svg" xmlns:xlink="http://www.w3.org/1999/xlink" viewBox="0 0 147 44"><defs><style>.cls-1{fill:#050800;}.cls-2{fill:#aba9a7;}.cls-10,.cls-11,.cls-3{fill:#fff;}.cls-4{fill:url(#Degradado_sin_nombre);}.cls-5{fill:url(#Degradado_sin_nombre_2);}.cls-6{fill:url(#Degradado_sin_nombre_3);}.cls-7{fill:url(#Degradado_sin_nombre_4);}.cls-8{opacity:0.2;}.cls-10,.cls-8,.cls-9{isolation:isolate;}.cls-9{opacity:0.12;}.cls-10{opacity:0.25;}.cls-11{stroke:#fff;stroke-width:0.2px;}</style><linearGradient id="Degradado_sin_nombre" x1="-215.17" y1="405.29" x2="-215.53" y2="404.62" gradientTransform="matrix(14.31, 0, 0, -27.3, 3099.72, 11077.01)" gradientUnits="userSpaceOnUse"><stop offset="0" stop-color="#00a0ff"/><stop offset="0.01" stop-color="#00a1ff"/><stop offset="0.26" stop-color="#00beff"/><stop offset="0.51" stop-color="#00d2ff"/><stop offset="0.76" stop-color="#00dfff"/><stop offset="1" stop-color="#00e3ff"/></linearGradient><linearGradient id="Degradado_sin_nombre_2" x1="-210.17" y1="378.88" x2="-212.56" y2="378.88" gradientTransform="matrix(11.18, 0, 0, -9.42, 2387.71, 3590.3)" gradientUnits="userSpaceOnUse"><stop offset="0" stop-color="#ffe000"/><stop offset="0.41" stop-color="#ffbd00"/><stop offset="0.78" stop-color="orange"/><stop offset="1" stop-color="#ff9c00"/></linearGradient><linearGradient id="Degradado_sin_nombre_3" x1="-218.66" y1="392.12" x2="-220.02" y2="391.1" gradientTransform="matrix(18.49, 0, 0, -13.99, 4068.64, 5512.56)" gradientUnits="userSpaceOnUse"><stop offset="0" stop-color="#ff3a44"/><stop offset="1" stop-color="#c31162"/></linearGradient><linearGradient id="Degradado_sin_nombre_4" x1="-219.7" y1="392.35" x2="-219.1" y2="391.89" gradientTransform="matrix(18.49, 0, 0, -13.99, 4068.64, 5498.57)" gradientUnits="userSpaceOnUse"><stop offset="0" stop-color="#32a071"/><stop offset="0.07" stop-color="#2da771"/><stop offset="0.48" stop-color="#15cf74"/><stop offset="0.8" stop-color="#06e775"/><stop offset="1" stop-color="#00f076"/></linearGradient></defs><g id="Desktop"><g id="Group-16"><path id="Path" class="cls-1" d="M141.25,43.05H6.07A5.34,5.34,0,0,1,.66,37.79V6.25A5.34,5.34,0,0,1,6.07,1H141.25a5.36,5.36,0,0,1,5.41,5.25V37.8A5.36,5.36,0,0,1,141.25,43.05Z"/><path id="Shape" class="cls-2" d="M141.39,1.19A4.56,4.56,0,0,1,146,5.74V38.26a4.57,4.57,0,0,1-4.57,4.55H5.61A4.57,4.57,0,0,1,1,38.26V5.74A4.57,4.57,0,0,1,5.61,1.19Zm0-.87H5.61A5.45,5.45,0,0,0,.17,5.74V38.26a5.45,5.45,0,0,0,5.44,5.42H141.39a5.45,5.45,0,0,0,5.44-5.42V5.74A5.45,5.45,0,0,0,141.39.32Z"/><g id="Group-14"><path id="Shape-2" data-name="Shape" class="cls-3" d="M74.45,24.93a4.56,4.56,0,0,0-4.69,4.47,4.48,4.48,0,0,0,4.69,4.47,4.56,4.56,0,0,0,4.7-4.47A4.64,4.64,0,0,0,74.45,24.93Zm0,7.22A2.75,2.75,0,1,1,77,29.4,2.57,2.57,0,0,1,74.45,32.15ZM64.36,24.93a4.56,4.56,0,0,0-4.69,4.47,4.48,4.48,0,0,0,4.69,4.47,4.57,4.57,0,0,0,4.7-4.47A4.72,4.72,0,0,0,64.36,24.93Zm0,7.22a2.76,2.76,0,1,1,2.58-2.75A2.62,2.62,0,0,1,64.36,32.15ZM52.28,26.31v1.94H57a3.83,3.83,0,0,1-1.06,2.41A4.82,4.82,0,0,1,52.28,32a5,5,0,1,1,0-10.09,4.94,4.94,0,0,1,3.52,1.37L57.2,22A6.63,6.63,0,0,0,52.28,20,7.14,7.14,0,0,0,45,27a7.14,7.14,0,0,0,7.28,7,6.88,6.88,0,0,0,5-2A6.27,6.27,0,0,0,59,27.57a3.68,3.68,0,0,0-.11-1.15H52.28Zm49.28,1.49a4.17,4.17,0,0,0-4-2.87,4.33,4.33,0,0,0-4.34,4.47,4.46,4.46,0,0,0,4.58,4.47,4.92,4.92,0,0,0,3.87-1.95l-1.53-1a2.53,2.53,0,0,1-2.23,1.26,2.32,2.32,0,0,1-2.23-1.37l6.22-2.53Zm-6.34,1.49a2.58,2.58,0,0,1,2.47-2.64,1.81,1.81,0,0,1,1.76.92Zm-5,4.47h2V20.46h-2ZM86.89,26h0a3.28,3.28,0,0,0-2.46-1,4.53,4.53,0,0,0,0,9.06,3.28,3.28,0,0,0,2.46-1H87v.68a2.33,2.33,0,0,1-2.46,2.64,2.65,2.65,0,0,1-2.35-1.6l-1.76.68A4.44,4.44,0,0,0,84.55,38c2.34,0,4.34-1.38,4.34-4.7V25.16H87V26Zm-2.34,6.19a2.75,2.75,0,0,1,0-5.5A2.54,2.54,0,0,1,87,29.4,2.54,2.54,0,0,1,84.55,32.15Zm26.52-11.69h-4.81v13.3h2v-5h2.82a4.28,4.28,0,0,0,4.46-4.12A4.28,4.28,0,0,0,111.07,20.46Zm0,6.42h-2.94V22.29h2.94a2.3,2.3,0,1,1,0,4.59Zm12.55-1.95A4,4,0,0,0,120,27l1.76.69a1.93,1.93,0,0,1,1.88-.92,1.88,1.88,0,0,1,2.11,1.72v.12a4.36,4.36,0,0,0-2.11-.46c-2,0-3.87,1-3.87,3a3.15,3.15,0,0,0,3.4,2.87,2.82,2.82,0,0,0,2.58-1.26h.12v1h2v-5C127.73,26.19,126,24.93,123.62,24.93Zm-.23,7.22c-.71,0-1.65-.34-1.65-1.14,0-1,1.18-1.38,2.12-1.38a4,4,0,0,1,1.87.46A2.28,2.28,0,0,1,123.39,32.15Zm11.5-6.88L132.54,31h-.12L130,25.27h-2.23l3.64,8-2.11,4.47h2.11L137,25.27Zm-18.31,8.49h2V20.46h-2Z"/><g id="Group"><path id="Path-2" data-name="Path" class="cls-4" d="M11.83,9.46A2.38,2.38,0,0,0,11.36,11V35.12a2.69,2.69,0,0,0,.47,1.53l.12.11L25.67,23.23v-.35L11.83,9.46Z"/><path id="Path-3" data-name="Path" class="cls-5" d="M30.2,27.7l-4.53-4.47v-.35l4.53-4.59h.12l5.37,3.06c1.55.82,1.55,2.23,0,3.17L30.2,27.7Z"/><path id="Path-4" data-name="Path" class="cls-6" d="M30.32,27.58,25.67,23,11.83,36.53c.48.59,1.32.59,2.27.12l16.22-9.07"/><path id="Path-5" data-name="Path" class="cls-7" d="M30.32,18.4,14.22,9.34a2,2,0,0,0-2.39.12L25.67,23Z"/><g id="Path-6" data-name="Path"><path class="cls-8" d="M30.2,27.47l-16,8.94a2,2,0,0,1-2.27,0h0l-.12.12h0l.12.12h0a2,2,0,0,0,2.27,0l16-9.18Z"/><path class="cls-9" d="M11.83,36.41a2,2,0,0,1-.47-1.53V35a2.64,2.64,0,0,0,.47,1.53v-.12Z"/></g><path id="Path-7" data-name="Path" class="cls-9" d="M35.69,24.41,30.2,27.47l.12.11,5.37-3.06A2.26,2.26,0,0,0,36.88,23h0A2.23,2.23,0,0,1,35.69,24.41Z"/><path id="Path-8" data-name="Path" class="cls-10" d="M14.22,9.46,35.81,21.58A2.24,2.24,0,0,1,37,23h0a1.71,1.71,0,0,0-1.19-1.53L14.22,9.34c-1.55-.82-2.86-.12-2.86,1.65v.12C11.36,9.34,12.67,8.64,14.22,9.46Z"/></g><g id="Group-2" data-name="Group"><path id="Shape-3" data-name="Shape" class="cls-11" d="M45,14.89V8.69h2a3.16,3.16,0,0,1,2.34.9,3.2,3.2,0,0,1,0,4.51A3.37,3.37,0,0,1,47,15H45Zm.82-.79H47a2.41,2.41,0,0,0,1.75-.68,2.24,2.24,0,0,0,.71-1.69A1.94,1.94,0,0,0,48.74,10,2.41,2.41,0,0,0,47,9.37H45.82Z"/><polygon id="Path-9" data-name="Path" class="cls-11" points="51.43 14.89 51.43 8.69 52.25 8.69 52.25 15 51.43 15 51.43 14.89"/><path id="Path-10" data-name="Path" class="cls-11" d="M55.53,15a2.31,2.31,0,0,1-1.41-.45,2.59,2.59,0,0,1-.93-1.24L54,13a1.48,1.48,0,0,0,.58.9,1.36,1.36,0,0,0,.94.34,2.27,2.27,0,0,0,.93-.22,1,1,0,0,0,.36-.79,1,1,0,0,0-.36-.79,4.93,4.93,0,0,0-1.17-.56A4.42,4.42,0,0,1,54,11.17a1.22,1.22,0,0,1-.47-1A1.53,1.53,0,0,1,54.12,9a1.92,1.92,0,0,1,1.41-.45A1.5,1.5,0,0,1,56.82,9a1.2,1.2,0,0,1,.7.79l-.82.33c0-.22-.24-.33-.35-.56a1.8,1.8,0,0,0-.82-.22,1.77,1.77,0,0,0-.82.22c-.23.23-.35.34-.35.68a.62.62,0,0,0,.35.56,4,4,0,0,0,.94.34,4.59,4.59,0,0,1,.81.34l.71.34a1.07,1.07,0,0,1,.46.56,1.57,1.57,0,0,1,.12.79,1.67,1.67,0,0,1-.23.79,2.51,2.51,0,0,1-.47.56l-.7.34A1.86,1.86,0,0,1,55.53,15Z"/><path id="Shape-4" data-name="Shape" class="cls-11" d="M59.74,14.89h-.82V8.69h2.22a2,2,0,0,1,1.41.56,1.87,1.87,0,0,1,0,2.71,2.2,2.2,0,0,1-1.41.56h-1.4v2.37Zm0-3.27h1.4a1.06,1.06,0,0,0,.82-.34,1,1,0,0,0,.35-.79A1.19,1.19,0,0,0,62,9.7a1.09,1.09,0,0,0-.82-.33h-1.4Z"/><path id="Shape-5" data-name="Shape" class="cls-11" d="M69.57,14.1a2.94,2.94,0,0,1-2.34.9A3.15,3.15,0,0,1,64,11.73a3.52,3.52,0,0,1,.94-2.36,2.89,2.89,0,0,1,2.34-.91,3.15,3.15,0,0,1,3.27,3.27A3.38,3.38,0,0,1,69.57,14.1Zm-4.22-.56a2.45,2.45,0,0,0,1.76.67,2.41,2.41,0,0,0,1.75-.67,2.36,2.36,0,0,0,.71-1.81,2.32,2.32,0,0,0-.71-1.8,2.41,2.41,0,0,0-1.75-.68,2.45,2.45,0,0,0-1.76.68,2.35,2.35,0,0,0-.7,1.8A2.39,2.39,0,0,0,65.35,13.54Z"/><polygon id="Path-11" data-name="Path" class="cls-11" points="71.67 14.89 71.67 8.69 72.72 8.69 75.88 13.54 75.88 13.54 75.88 12.3 75.88 8.69 76.7 8.69 76.7 15 75.88 15 72.49 9.82 72.49 9.82 72.49 11.06 72.49 15 71.67 15 71.67 14.89"/><path id="Shape-6" data-name="Shape" class="cls-11" d="M78.22,14.89V8.69H79V15h-.82Zm.7-6.76h-.7L78.69,7h.94Z"/><polygon id="Path-12" data-name="Path" class="cls-11" points="82.08 14.89 79.74 8.58 80.68 8.58 82.43 13.65 82.43 13.65 84.42 8.69 85.36 8.69 83.02 15 82.08 15 82.08 14.89"/><polygon id="Path-13" data-name="Path" class="cls-11" points="90.04 9.37 87.11 9.37 87.11 11.39 89.8 11.39 89.8 12.18 87.11 12.18 87.11 14.21 90.04 14.21 90.04 15 86.3 15 86.3 8.69 90.04 8.69 90.04 9.37"/><polygon id="Path-14" data-name="Path" class="cls-11" points="91.44 14.89 91.44 8.69 92.26 8.69 92.26 14.21 95.07 14.21 95.07 15 91.44 15 91.44 14.89"/><polygon id="Path-15" data-name="Path" class="cls-11" points="98.23 14.89 98.23 8.69 99.28 8.69 102.44 13.54 102.44 13.54 102.44 12.3 102.44 8.69 103.26 8.69 103.26 15 102.44 15 99.16 9.82 99.16 9.82 99.16 11.06 99.16 15 98.23 15 98.23 14.89"/><path id="Shape-7" data-name="Shape" class="cls-11" d="M110,14.1a2.92,2.92,0,0,1-2.34.9,3.37,3.37,0,0,1-2.34-.9,3.38,3.38,0,0,1-.93-2.37,3.55,3.55,0,0,1,.93-2.36,2.92,2.92,0,0,1,2.34-.91A3.16,3.16,0,0,1,111,11.73,2.63,2.63,0,0,1,110,14.1ZM106,13.54a2.63,2.63,0,0,0,3.51,0,2.39,2.39,0,0,0,.7-1.81,2.35,2.35,0,0,0-.7-1.8,2.6,2.6,0,0,0-3.51,0,2.31,2.31,0,0,0-.7,1.8A2.35,2.35,0,0,0,106,13.54Z"/></g></g></g></g></svg>